<?xml version="1.0" encoding="utf-8"?>
<svg version="1.1" id="Layer_1" xmlns="http://www.w3.org/2000/svg" xmlns:xlink="http://www.w3.org/1999/xlink" x="0px" y="0px"
	 viewBox="0 0 400 400" style="enable-background:new 0 0 400 400;" xml:space="preserve">
<style type="text/css">
	.st0{fill:#ED1C24;}
	.st1{fill:#FFFFFF;}
</style>
<circle class="st0" cx="200" cy="200" r="200"/>
<path class="st1" d="M356.1,244.7c-7.3,7.1-14.8,13.7-22.7,19.6c-40.4,30.7-87.6,46.1-134.9,46c-45.6-0.1-91.2-14.4-130.6-43.2
	c-7.9-5.8-15.6-12.2-23-19.1c-5.8-5.5-6.8-15.2-1.7-21.6c5-6.4,13.8-7,19.6-1.6c38.5,36.4,86.3,54.8,134.2,55.2
	c50.5,0.5,101-18.9,140.9-58.1c2.6-2.6,7-3.3,9.1-3.9c2.5-0.7,7.7,1.7,10.5,5C362.7,229.4,361.8,239.1,356.1,244.7z"/>
<path class="st1" d="M320.4,183.8c-5.7,5.6-11.6,10.7-17.7,15.3c-31.6,24-68.5,36-105.5,36c-35.7,0-71.3-11.3-102.2-33.8
	c-6.2-4.5-12.2-9.5-18-15c-4.6-4.3-5.3-11.9-1.3-16.9c3.9-5,10.8-5.5,15.3-1.2c30.1,28.5,67.5,42.8,105,43.2
	c39.5,0.4,79-14.8,110.2-45.4c2-2,5.5-2.5,7.1-3c2-0.6,6,1.3,8.2,3.9C325.6,171.9,324.9,179.5,320.4,183.8z"/>
<path class="st1" d="M297.7,125c-4.6,4.5-9.4,8.7-14.4,12.5c-25.7,19.5-55.7,29.3-85.8,29.3c-29,0-58-9.2-83.1-27.5
	c-5.1-3.7-9.9-7.7-14.6-12.2c-3.7-3.5-4.3-9.6-1.1-13.8c3.2-4,8.7-4.5,12.4-1c24.5,23.1,54.9,34.8,85.4,35.1
	c32.1,0.3,64.3-12,89.6-37c1.7-1.6,4.4-2.1,5.8-2.5c1.6-0.5,4.9,1.1,6.6,3.2C301.8,115.3,301.3,121.4,297.7,125z"/>
</svg>
